# xmcd
#
# Track frame offsets:
#	183
#	18190
#	37585
#	53935
#	72258
#	94855
#	114365
#	130360
#	147978
#	167295
#	186670
#	208268
#	227778
#	245835
#	267683
#	288108
#	307248
#	326330
#
# Disc length: 4614 seconds
#
# Revision: 28
# Processed by: cddbd v1.5.2PL0 Copyright (c) Steve Scherf et al.
# Submitted via: audiograbber 1.83.01
#
DISCID=0e120412
DTITLE=Pet Shop Boys - Discography - The Complete Singles Collection
DYEAR=1991
DGENRE=Pop
TTITLE0=West End Girls
TTITLE1=Love Comes Quickly
TTITLE2=Opportunities (Let's Make Lots Of Money)
TTITLE3=Suburbia
TTITLE4=It's A Sin
TTITLE5=What Have I Done To Deserve This?
TTITLE6=Rent
TTITLE7=Always On My Mind
TTITLE8=Heart
TTITLE9=Domino Dancing
TTITLE10=Left To My Own Devices
TTITLE11=It's Alright
TTITLE12=So Hard
TTITLE13=Being Boring
TTITLE14=Where The Streets Have No Name (I Can't Take My Eyes Off You)
TTITLE15=Jealousy
TTITLE16=DJ Culture
TTITLE17=Was It Worth It?
EXTD=
EXTT0=
EXTT1=
EXTT2=
EXTT3=
EXTT4=
EXTT5=
EXTT6=
EXTT7=
EXTT8=
EXTT9=
EXTT10=
EXTT11=
EXTT12=
EXTT13=
EXTT14=
EXTT15=
EXTT16=
EXTT17=
PLAYORDER=
